<svg height="464pt" viewBox="-16 0 464 464" width="464pt" xmlns="http://www.w3.org/2000/svg"><path d="m336 48c-17.671875 0-32 14.328125-32 32v264c0 4.417969-3.582031 8-8 8h-288c-4.417969 0-8-3.582031-8-8v-264c0-17.671875 14.328125-32 32-32zm0 0" fill="#e6e7e8"/><path d="m304 102.238281v241.761719c0 4.417969-3.582031 8-8 8h-288c-4.417969 0-8-3.582031-8-8v-34.078125c118.03125-40.902344 222.984375-112.601563 304-207.683594zm0 0" fill="#d8d7da"/><path d="m368 120v-40c0-17.671875-14.328125-32-32-32s-32 14.328125-32 32v72h96c-17.671875 0-32-14.328125-32-32zm0 0" fill="#bcbec0"/><path d="m424 0h-352c-4.417969 0-8 3.582031-8 8v40h272c8.488281-.011719 16.636719 3.355469 22.640625 9.359375s9.371094 14.152344 9.359375 22.640625v40c0 17.671875 14.328125 32 32 32s32-14.328125 32-32v-112c0-4.417969-3.582031-8-8-8zm0 0" fill="#d1d3d4"/><path d="m176 240c0 35.347656-28.652344 64-64 64s-64-28.652344-64-64 28.652344-64 64-64 64 28.652344 64 64zm0 0" fill="#ffd422"/><path d="m240 256c-17.671875 0-32 14.328125-32 32v64h-144v50.742188c0 8.492187 3.371094 16.632812 9.375 22.632812l36.28125 36.28125c1.5 1.5 3.535156 2.34375 5.65625 2.34375h119.742188c3.03125 0 5.800781-1.714844 7.152343-4.425781l28.945313-57.886719c.558594-1.109375.847656-2.332031.847656-3.574219v-110.113281c0-17.671875-14.328125-32-32-32zm0 0" fill="#ffdaaa"/><path d="m64 352h144v16h-144zm0 0" fill="#ffc477"/><path d="m88 88h176v16h-176zm0 0" fill="#acabb1"/><path d="m40 120h224v16h-224zm0 0" fill="#acabb1"/><path d="m40 88h32v16h-32zm0 0" fill="#898890"/><path d="m120 232h-16c-4.417969 0-8-3.582031-8-8s3.582031-8 8-8h16c4.417969 0 8 3.582031 8 8h16c0-13.253906-10.746094-24-24-24v-8h-16v8c-13.253906 0-24 10.746094-24 24s10.746094 24 24 24h16c4.417969 0 8 3.582031 8 8s-3.582031 8-8 8h-16c-4.417969 0-8-3.582031-8-8h-16c0 13.253906 10.746094 24 24 24v8h16v-8c13.253906 0 24-10.746094 24-24s-10.746094-24-24-24zm0 0" fill="#ff6243"/></svg>